<svg version="1" xmlns="http://www.w3.org/2000/svg" width="1440" height="1440" viewBox="0 0 1080.000000 1080.000000"><path d="M506.8 239.5c-.2.1-6.4.6-13.8 1-7.4.3-15.3.8-17.5 1-2.2.2-7.7.6-12.1 1-4.5.3-9.3.8-10.5 1-1.3.2-6.7.9-11.9 1.5s-11.7 1.5-14.5 2c-2.7.6-6.7 1.2-8.9 1.5-2.1.2-4.6.7-5.5.9-.9.3-3.2.8-5.1 1.1-1.9.3-6.3 1.2-9.6 2-3.4.8-7.3 1.6-8.5 1.9-1.3.3-4.9 1.2-7.9 2-4.7 1.2-11 2.2-20.5 3.1-5.5.5-26.4 4.5-42 8.2-47.8 11.1-88.2 28.4-110.1 47-1.1 1-4.5 3.8-7.4 6.3-8.6 7.3-15.8 15-21.3 22.8l-5.2 7.4-4.5-.6c-8.2-.9-17.5-3.3-34.3-8.6l-16.6-5.3 1.6-3.6c8.1-18.6 9.8-36.1 4.8-50.2-.8-2.2-1.5-4.1-1.5-4.4-.1-.2-.4-1.4-.7-2.6-1-3.8-5.3-11.2-9.4-16.1-7.2-8.5-19.9-15.4-29.4-15.9-12.3-.7-32.5 8-42.4 18.1-3.3 3.3-3.8 3.5-10.5 3.5-8.6 0-14.3 2.8-19.2 9.2-7.8 10.2-10.3 24-6.9 38 2.1 8.3 5 14.3 12 24.8 8.4 12.5 16 18.7 24.8 20.2 3.1.5 4.4 1.4 6.5 4.7 5.4 8.6 24.8 26.3 40 36.5 8.5 5.7 18.2 10.4 27 13.1 3.9 1.2 7.2 2.4 7.2 2.6 0 .2-.9 2.6-2 5.4-3.5 8.8-8.8 28.8-10.4 39-.8 4.7-1.9 11.5-2.3 14-.8 4.9-1 25.8-.3 30.6.4 2.7 1 7.1 1.4 9.9 2.2 18.7 9.7 45.1 16 56.5.8 1.4 3 5.5 4.9 9.2 11.8 22.2 41.3 59.3 57.4 72 3 2.4 6.7 5.3 8.1 6.5 1.5 1.3 3 2.3 3.5 2.3.4 0 2.3 1.4 4.1 3 3.2 3 3.3 3.2 2.5 7.8-3 15.6-7.3 29.8-13 42-5.9 12.7-7.9 22.2-8.3 38.2-.2 8.7 1.6 17.4 4.4 21.8 2.9 4.5 9.9 7.6 28.5 12.8 5 1.4 11.3 3.2 14 4 2.8.9 6.8 2 9 2.5s4.7 1.2 5.5 1.6c.8.3 2 .7 2.5.8.6.2 3.7 1 7 1.8 5.4 1.4 15.4 3.1 18 3.1 9.6-.1 17.6-11 20.6-28 2.4-13.6-.5-25.8-9.1-38.3-2.3-3.4-4.3-7.3-4.6-8.6-.4-2.3 3.5-14 7.2-21.8 1.3-2.7 2.2-3.6 3.3-3.1.9.4 6 2.3 11.4 4.4 5.4 2 10.1 4.1 10.6 4.6.8.8 3.6 8.6 3.3 9.1-.1.2.9 2.6 2.2 5.5 4.7 11.1 5.1 13.2 3.2 19.2-5.3 16.8-5.3 36.3-.1 43.2 6.3 8.3 30.7 15.2 52.5 14.8 25.4-.4 41-4.8 46.8-13.4 6.5-9.6-1.4-39.7-14-53.6l-5.1-5.5 5.4 2c4.7 1.6 28.6 8.6 32.9 9.6.8.2 6.2 1.4 12 2.8 22.7 5.4 33.7 7.6 47.5 9.3 2.2.3 5.1.7 6.5 1 13.9 2.3 60.7 2.2 79.5 0 1.1-.2 5.2-.7 9-1.2 3.9-.4 7.3-.9 7.7-.9.4 0 3.8 4.7 7.6 10.5 3.9 5.8 7.8 11.4 8.9 12.5 1 1.1 2.5 3.1 3.4 4.5 3.2 4.9 18 19.8 23.4 23.6 3 2 5.5 4 5.6 4.3.3 2.6 1.2 4.8 5.2 12.6 6.6 13.1 7.3 14.5 11.5 20.4 6.1 8.7 11.2 10.4 25.6 8.7 10.1-1.2 21.2-3.8 38.1-8.8 2.2-.7 5.1-1.8 6.5-2.5 1.4-.7 3.1-1.3 3.8-1.3 1.7 0 11.2-9.5 11.2-11.2.1-3.5 1.6-3.9 6.8-1.9 9.5 3.7 27.7 1.7 53.6-6.1 22.6-6.8 27.8-17.6 15.1-31.7-4.7-5.2-14.6-13-20.5-16.3-3.9-2.1-4.9-3.4-7.6-9.9-8.2-19-12-32.9-15.9-57.1-.4-2.5.3-3.3 8-8.4 9.4-6.3 25.7-21.7 32.6-30.9 2.4-3.3 4.6-6.2 4.9-6.5.3-.3 2.1-3.1 4-6.3 3.4-5.7 3.5-5.7 7-5 4.6 1 29.2 1 35.3 0 16.1-2.6 26.2-6.1 36.2-12.6 5.7-3.7 7.7-4.5 10.7-4.2 4.4.3 15.7-3.2 21-6.6 2.1-1.2 4.1-2.3 4.5-2.3 1.1 0 13.4-12.6 14.9-15.3.7-1.2 1.8-3.2 2.5-4.4.6-1.2 3-2.9 5.3-3.8 9.7-3.9 20.8-10 24.3-13.4 11.9-11.4 20.1-25.5 21.2-36.5 1.9-17.7-3.7-35.4-13.5-42.6-4.3-3.2-4.4-5-.1-5 4.4 0 25.3-5.4 33.5-8.6 6-2.4 11.9-5.7 13.2-7.5.3-.3 1.9-1.3 3.5-2.2 4.4-2.2 12.4-10.5 14-14.5 4.7-11.1-1.6-25.6-15.7-36.4-6.9-5.2-20.4-10-34.8-12.3-9.2-1.5-10.6-1.9-12.6-3.9-3.5-3.6-9-10.9-11.7-15.6-4-7.1-11.3-14-19.8-19-4.9-3-17.7-7.4-23.9-8.3-1.9-.3-5.6-.9-8.2-1.3-3.4-.5-4.9-1.2-5.4-2.6-.9-3-9.5-14-14.8-18.9-13.6-12.6-37-24.8-50.7-26.5-3.3-.4-9-2.6-16.2-6.3-6.2-3.1-15-7.4-19.7-9.5-7.7-3.5-46.1-17.9-57-21.3-2.5-.8-5.4-1.9-6.5-2.3-7.8-3.2-45.2-14.4-52.4-15.6-1.4-.3-7.1-1.6-12.6-2.9-5.5-1.4-13.6-3.2-18-4.1-4.4-.9-8.7-1.7-9.5-1.9-.8-.2-8.7-1.7-17.5-3.4-8.8-1.8-18-3.6-20.5-4.1-8.1-1.8-32.9-5.2-47-6.6-3.6-.4-8.1-.8-10-1-4.2-.5-75.7-1.4-76.2-.9z"/></svg>